<svg width="267" height="335" viewBox="0 0 267 335" fill="none" xmlns="http://www.w3.org/2000/svg">
<path d="M196.437 30.7032C196.564 26.2674 192.462 22.8397 188.332 21.2145C184.203 19.5893 179.612 18.9773 175.931 16.4987C172.672 14.3042 170.481 10.8827 167.722 8.08538C160.953 1.22397 150.384 -1.6212 141.086 0.915423C131.787 3.45205 124.127 11.2696 121.78 20.6188C120.195 26.9364 121.277 34.4058 126.257 38.6043C132.037 43.4769 140.605 42.3944 148.011 40.8792C155.417 39.3639 163.799 37.869 169.982 42.2172C173.711 44.8404 175.849 49.1061 178.128 53.0552C180.407 57.0032 183.268 61.0347 187.579 62.5194C191.889 64.0041 197.743 61.441 197.911 56.885" fill="#263238"/>
<path d="M196.138 33.1373C195.651 36.8552 198.341 40.1841 201.019 42.8093C203.697 45.4345 206.724 48.2186 207.196 51.9385C207.748 56.2836 204.576 60.5636 205.497 64.8456C206.081 67.5645 208.195 69.6582 209.477 72.1255C211.278 75.5898 211.37 79.7802 210.267 83.5246C209.163 87.2689 207.403 95.6313 204.8 98.5416C197.602 106.588 186.142 113.533 175.619 115.951C165.097 118.368 154.168 118.382 143.392 117.72C134.57 117.177 124.426 117.582 117.073 105.446C113.266 99.1598 111.38 90.8024 109.357 83.7374C107.614 77.654 106.107 71.1398 107.919 65.0768C108.974 61.5442 111.1 58.4037 112.14 54.8671C113.439 50.4487 112.966 45.7237 113.489 41.1474C114.621 31.2412 120.77 22.0387 129.488 17.1997C138.207 12.3617 149.267 12.0124 158.273 16.2924" fill="#263238"/>
<path d="M117.71 48.3824C118.535 35.7227 126.959 20.2067 139.572 21.5692L178.943 31.6138C182.775 32.0273 185.653 35.3042 185.568 39.1575L181.142 134.142C181.236 134.162 181.322 134.182 181.415 134.202C181.415 134.202 172.442 160.993 146.407 152.809C141.244 151.185 138.887 145.539 137.864 139.73L137.597 139.764C137.587 139.074 137.579 138.432 137.57 137.774C136.711 131.071 137.415 124.731 137.415 124.731C137.342 117.062 137.35 113.917 137.345 113.988C137.345 113.988 121.175 111.266 117.87 90.1547C116.227 79.6549 116.792 62.4474 117.71 48.3824Z" fill="#FFBE9D"/>
<path d="M124.051 61.1053C123.997 62.535 125.163 63.759 126.655 63.8425C128.144 63.926 129.396 62.8385 129.45 61.4088C129.503 59.9801 128.338 58.754 126.849 58.6705C125.358 58.587 124.105 59.6766 124.051 61.1053Z" fill="#263238"/>
<path d="M121.422 57.3428C121.757 57.6962 123.811 56.184 126.723 56.1972C129.633 56.1697 131.767 57.6727 132.084 57.3163C132.24 57.1585 131.899 56.521 130.97 55.8408C130.055 55.1636 128.494 54.5048 126.68 54.5078C124.865 54.5139 123.338 55.1789 122.459 55.8601C121.563 56.5475 121.257 57.185 121.422 57.3428Z" fill="#263238"/>
<path d="M152.678 61.1053C152.624 62.5351 153.79 63.7581 155.281 63.8416C156.769 63.924 158.023 62.8365 158.077 61.4078C158.131 59.9791 156.965 58.753 155.475 58.6695C153.984 58.586 152.732 59.6756 152.678 61.1053Z" fill="#263238"/>
<path d="M150.05 57.9492C150.386 58.3026 152.442 56.7904 155.352 56.8046C158.261 56.7761 160.396 58.2802 160.712 57.9238C160.867 57.7659 160.531 57.1285 159.598 56.4482C158.684 55.771 157.123 55.1112 155.308 55.1153C153.495 55.1214 151.967 55.7863 151.087 56.4676C150.193 57.1529 149.887 57.7914 150.05 57.9492Z" fill="#263238"/>
<path d="M139.431 79.5239C139.445 79.3589 137.635 79.0412 134.702 78.6593C133.959 78.5809 133.255 78.4312 133.131 77.9241C132.957 77.3865 133.269 76.5861 133.632 75.7205C134.336 73.9221 135.071 72.0372 135.844 70.0617C138.916 62.0058 141.142 55.3797 140.816 55.2595C140.49 55.1383 137.736 61.571 134.663 69.6269C133.924 71.6136 133.216 73.5077 132.544 75.3193C132.261 76.1635 131.774 77.1217 132.152 78.2378C132.352 78.7938 132.897 79.198 133.373 79.3284C133.85 79.475 134.268 79.4842 134.636 79.5066C137.588 79.6716 139.42 79.6889 139.431 79.5239Z" fill="#263238"/>
<path d="M137.344 113.985C137.344 113.985 151.541 114.932 165.626 106.509C165.626 106.509 158.486 121.103 137.369 119.081L137.344 113.985Z" fill="#EB996E"/>
<path d="M140.649 86.546C141.699 85.1631 143.537 84.4065 145.358 84.6071C146.622 84.7456 147.898 85.3586 148.663 86.3892C149.428 87.4197 149.586 88.882 148.886 89.8616C148.098 90.9655 146.454 91.217 145.065 90.8188C143.676 90.4207 142.482 89.5032 141.347 88.5887C141.034 88.3362 140.713 88.0714 140.517 87.7252C140.322 87.379 140.281 86.9268 140.524 86.6407" fill="#EB996E"/>
<path d="M148 81.5599C147.527 81.5313 147.513 84.6922 144.803 86.9304C142.097 89.1758 138.727 88.8133 138.702 89.2553C138.657 89.4538 139.451 89.8713 140.873 89.9131C142.268 89.964 144.307 89.52 145.966 88.1514C147.619 86.7787 148.333 84.9447 148.444 83.6474C148.566 82.3266 148.216 81.5425 148 81.5599Z" fill="#263238"/>
<path d="M148.75 52.8496C149.035 53.6418 151.944 53.2732 155.36 53.6928C158.785 54.0441 161.538 55.0502 161.993 54.3404C162.196 54.0013 161.717 53.2549 160.605 52.4861C159.502 51.7183 157.742 50.9871 155.691 50.7539C153.64 50.5248 151.761 50.8466 150.516 51.3496C149.26 51.8527 148.628 52.4728 148.75 52.8496Z" fill="#263238"/>
<path d="M122.511 48.9112C123.023 49.5732 125.031 48.8919 127.443 48.8644C129.854 48.7534 131.898 49.3186 132.37 48.6282C132.576 48.2921 132.256 47.6292 131.365 47.0009C130.486 46.3756 129.016 45.8614 127.358 45.9082C125.7 45.9571 124.262 46.5538 123.422 47.229C122.567 47.9072 122.286 48.5874 122.511 48.9112Z" fill="#263238"/>
<path d="M193.68 101.049C187.876 102.219 181.555 100.435 177.218 96.4047C172.881 92.3732 170.642 86.1992 171.385 80.3255C172.041 75.1423 174.836 69.8685 173.039 64.9622C170.663 58.4756 161.571 56.4807 159.158 50.0073C157.756 46.2456 159.015 41.8444 157.425 38.1581C155.93 34.6908 152.282 32.6949 148.733 31.4108C145.183 30.1267 141.375 29.2408 138.395 26.9241C135.414 24.6074 133.555 20.2348 135.477 16.9854C151.221 18.8723 166.74 22.6431 181.595 28.1909C185.039 29.477 188.657 31.0238 190.693 34.0849C192.848 37.3241 192.745 41.5104 192.564 45.3963C191.68 64.3461 190.795 83.297 189.911 102.248" fill="#263238"/>
<path d="M192.356 108.306C192.367 108.318 192.482 108.244 192.696 108.088C192.952 107.893 193.261 107.658 193.635 107.373C194.451 106.734 195.651 105.784 197.131 104.477C198.603 103.165 200.376 101.498 202.093 99.2551C203.794 97.0301 205.465 94.13 206.039 90.5679C206.669 87.1015 206.206 82.7391 203.318 79.4621C201.895 77.8563 200.068 76.6547 198.4 75.2697C196.704 73.9134 195.295 72.1883 194.564 70.0376C193.003 65.7353 193.699 60.7537 193.096 55.6621C192.428 50.596 190.618 45.3659 187.113 41.1195C185.363 39.0188 183.262 37.2021 180.855 36.0046C178.459 34.7418 175.865 34.2205 173.469 33.5117C171.048 32.8437 168.83 31.8427 166.988 30.3183C165.133 28.8265 163.614 27.0047 162.284 25.131C159.633 21.3663 157.673 17.3531 155.147 14.0079C153.89 12.3379 152.524 10.8165 150.988 9.59253C149.453 8.36851 147.767 7.4673 146.058 6.90723C142.652 5.74533 139.056 6.12924 136.684 7.84204C134.342 9.62308 133.485 12.1902 133.355 14.1597C133.256 16.1892 133.943 17.7105 134.625 18.5069C134.959 18.9183 135.256 19.184 135.486 19.3307C135.7 19.4926 135.812 19.5669 135.822 19.5547C135.831 19.5415 135.736 19.4406 135.546 19.2584C135.34 19.0903 135.072 18.8093 134.774 18.3938C134.162 17.5894 133.568 16.1199 133.715 14.1851C133.888 12.3053 134.781 9.87358 136.986 8.26464C139.213 6.71579 142.609 6.37974 145.848 7.53044C147.474 8.0844 149.082 8.96728 150.538 10.1516C152 11.3379 153.314 12.8257 154.529 14.4682C156.976 17.7594 158.898 21.7614 161.585 25.6259C162.934 27.5454 164.49 29.4354 166.431 31.0097C168.349 32.6166 170.757 33.7072 173.212 34.3854C175.658 35.1115 178.179 35.6298 180.433 36.8274C182.718 37.9658 184.718 39.698 186.397 41.7112C189.762 45.7804 191.536 50.8577 192.194 55.7761C192.809 60.6977 192.097 65.7546 193.762 70.3319C194.541 72.617 196.127 74.5264 197.88 75.8991C199.609 77.3115 201.4 78.4795 202.743 79.9764C205.452 82.9916 205.96 87.1087 205.391 90.463C204.879 93.9008 203.309 96.7267 201.677 98.9456C200.03 101.176 198.312 102.867 196.887 104.211C195.452 105.55 194.291 106.544 193.514 107.231C192.737 107.913 192.335 108.28 192.356 108.306Z" fill="#455A64"/>
<path d="M196.209 110.924C200.548 106.73 207.959 110.376 211.599 115.188C215.24 120 217.82 126.203 223.348 128.622C228.872 131.041 236.064 128.961 240.704 132.814C247.101 138.128 243.508 150.442 250.424 155.062C253.169 156.896 256.79 156.83 259.725 158.344C266.64 161.909 266.558 171.664 265.49 179.371C263.99 190.185 262.347 201.397 256.379 210.539C250.411 219.682 238.794 226.115 228.461 222.587C218.531 219.197 213.434 208.482 209.396 198.798C203.807 185.4 198.22 172.001 192.631 158.603C189.398 150.853 186.133 142.984 185.081 134.652C184.029 126.321 185.445 117.323 190.743 110.807" fill="#263238"/>
<path d="M198.991 101.682C202.144 101.302 204.549 105.165 203.72 108.231C202.89 111.297 199.947 113.342 196.948 114.39C195.271 114.975 193.461 115.337 191.717 114.994C189.975 114.651 188.317 113.493 187.757 111.807C187.168 110.034 187.623 108.838 189.207 107.848C191.281 106.552 192.497 105.532 194.133 104.63C196.637 103.248 196.488 103.063 198.991 101.682Z" fill="#E8505B"/>
<path d="M126.453 135.646L138.701 126.367L184.836 123.418L186.692 129.604L171.685 223.253L183.524 334.98H119.159L126.453 135.646Z" fill="#E8505B"/>
<g opacity="0.3">
<path d="M175.855 295.342C174.383 293.77 171.969 291.608 169.817 291.561C154.407 291.222 138.664 289.681 123.254 289.342L122.021 335.001C125.708 328.501 129.196 321.738 130.167 314.329C130.591 311.093 131.134 307.225 134.09 305.84C135.761 305.055 137.719 305.362 139.53 305.72C145.097 306.821 150.627 308.259 156.29 308.611C161.954 308.964 167.88 308.138 172.637 305.044C174.269 303.982 175.781 302.61 176.547 300.82C177.312 299.029 177.186 296.763 175.855 295.342Z" fill="black"/>
</g>
<path d="M136.434 137.534L135.007 124.144C134.756 121.786 136.485 119.679 138.847 119.465L181.319 115.627C182.469 115.524 183.469 116.409 183.504 117.564L183.982 133.496L171.684 154.366L159.042 158.39H143.585L134.694 148.895L136.434 137.534Z" fill="#E8505B"/>
<path d="M177.714 128.386C177.706 128.429 177.105 128.322 176.015 128.211C174.926 128.107 173.34 128.018 171.386 128.133C169.433 128.245 167.12 128.568 164.586 129.112C162.049 129.644 159.292 130.392 156.371 131.101C153.451 131.81 150.626 132.389 148.009 132.59C145.396 132.801 143.004 132.613 141.076 132.122C139.14 131.649 137.684 130.913 136.75 130.323C136.284 130.023 135.94 129.764 135.717 129.577C135.495 129.388 135.385 129.282 135.396 129.267C135.424 129.231 135.904 129.609 136.855 130.146C137.808 130.673 139.256 131.341 141.161 131.757C143.06 132.191 145.398 132.338 147.968 132.103C150.541 131.878 153.335 131.293 156.246 130.586C159.157 129.878 161.926 129.143 164.487 128.633C167.045 128.112 169.39 127.823 171.369 127.758C173.347 127.69 174.95 127.837 176.041 128.007C176.587 128.096 177.007 128.178 177.289 128.252C177.572 128.322 177.718 128.367 177.714 128.386Z" fill="#263238"/>
<g opacity="0.3">
<path d="M137.447 130.491C136.311 133.617 136.277 137.49 138.584 139.886C140.465 141.839 143.485 142.328 146.143 141.797C148.802 141.267 151.196 139.868 153.526 138.481C159.373 135.001 165.314 131.398 171.956 129.923C172.382 129.828 172.835 129.729 173.149 129.425C173.463 129.12 173.541 128.533 173.188 128.275C173.032 128.162 172.83 128.137 172.638 128.117C166.763 127.529 160.931 129.189 155.172 130.483C149.411 131.776 143.261 132.692 137.708 130.688" fill="black"/>
</g>
<path d="M145.56 119.035C145.603 119.111 144.734 119.316 144.107 120.424C143.437 121.5 143.472 123.328 143.526 125.304C143.635 129.267 144.29 132.436 144.135 132.468C144.067 132.483 143.817 131.708 143.56 130.42C143.302 129.133 143.057 127.327 142.997 125.32C142.974 124.316 142.964 123.366 143.055 122.481C143.147 121.6 143.397 120.797 143.789 120.226C144.173 119.653 144.638 119.311 144.988 119.16C145.337 119.004 145.554 119.005 145.56 119.035Z" fill="#263238"/>
<path d="M156.783 130.678C156.617 130.662 156.997 127.741 156.479 124.195C155.991 120.643 154.814 117.945 154.969 117.883C155.029 117.855 155.401 118.496 155.837 119.608C156.274 120.718 156.745 122.311 157.004 124.121C157.259 125.93 157.25 127.592 157.139 128.78C157.029 129.968 156.848 130.687 156.783 130.678Z" fill="#263238"/>
<path d="M170.456 116.76C170.509 116.731 170.896 117.297 171.266 118.336C171.636 119.37 171.931 120.895 171.822 122.584C171.706 124.272 171.213 125.745 170.708 126.72C170.204 127.701 169.745 128.211 169.696 128.175C169.542 128.102 171.103 125.82 171.292 122.548C171.538 119.282 170.293 116.812 170.456 116.76Z" fill="#263238"/>
<path d="M110.906 141.667C110.906 141.667 96.4278 151.365 92.6233 168.88C89.6326 182.649 81.4392 255.372 81.4392 255.372L67.0952 283.302L76.4617 305.582C84.486 306.15 92.4533 303.871 98.9634 299.148L105.267 294.575L116.825 277.428L110.906 141.667Z" fill="#EBEBEB"/>
<path d="M135.454 128.824L110.906 141.666L105.113 160.705L99.9499 215.885L109.669 280.578L92.6221 334.78L122.02 334.999L122.718 303.225L125.653 200.377L128.538 134.861L135.454 128.824Z" fill="#EBEBEB"/>
<path d="M123.566 214.557C123.55 214.566 123.394 214.302 123.11 213.791C122.808 213.235 122.402 212.485 121.889 211.54C121.381 210.55 120.888 209.279 120.25 207.832C119.948 207.102 119.7 206.292 119.397 205.449C119.104 204.602 118.775 203.712 118.529 202.746C116.218 195.125 114.689 184.118 115.011 171.978C115.043 171.038 115.079 170.107 115.142 169.182L115.154 169.021L115.303 168.958C116.763 168.344 118.197 167.742 119.599 167.152L119.537 167.597C118.062 166.411 116.629 165.259 115.247 164.149L115.158 164.077L115.153 163.971C114.952 159.396 116.064 155.281 117.108 151.696C118.188 148.105 119.371 145.01 120.406 142.467C121.446 139.926 122.348 137.936 122.994 136.584C123.316 135.909 123.571 135.391 123.752 135.046C123.931 134.7 124.034 134.523 124.046 134.53C124.06 134.538 123.983 134.725 123.831 135.083C123.658 135.481 123.432 136.002 123.148 136.656C122.553 138.027 121.697 140.033 120.7 142.585C119.709 145.138 118.566 148.237 117.522 151.818C116.512 155.386 115.444 159.498 115.658 163.93L115.564 163.753C116.949 164.86 118.386 166.008 119.864 167.189L120.207 167.463L119.802 167.634C118.401 168.226 116.967 168.829 115.508 169.445L115.669 169.222C115.607 170.131 115.571 171.06 115.539 171.994C115.22 184.079 116.682 195.04 118.888 202.643C119.121 203.606 119.436 204.494 119.715 205.341C120.004 206.184 120.237 206.994 120.525 207.726C121.133 209.175 121.595 210.452 122.073 211.451C122.546 212.412 122.922 213.175 123.201 213.74C123.457 214.267 123.582 214.548 123.566 214.557Z" fill="#263238"/>
<path d="M104.305 253.197C104.287 253.201 104.207 252.926 104.068 252.399C103.923 251.823 103.731 251.052 103.489 250.084C103.235 249.079 102.943 247.845 102.66 246.4C102.37 244.957 102 243.32 101.71 241.489C101.389 239.663 101.047 237.661 100.772 235.498C100.444 233.342 100.22 231.022 99.9592 228.585C99.5182 223.702 99.2219 218.314 99.2168 212.653C99.2433 206.991 99.559 201.603 100.018 196.721C100.288 194.284 100.521 191.965 100.857 189.809C101.14 187.647 101.49 185.646 101.818 183.822C102.115 181.992 102.491 180.356 102.786 178.913C103.074 177.469 103.372 176.236 103.628 175.232C103.875 174.266 104.07 173.496 104.217 172.919C104.357 172.392 104.439 172.118 104.457 172.122C104.474 172.126 104.428 172.409 104.321 172.945C104.198 173.526 104.034 174.302 103.83 175.278C103.604 176.288 103.337 177.525 103.076 178.972C102.809 180.417 102.46 182.055 102.187 183.885C101.884 185.709 101.557 187.708 101.293 189.868C100.976 192.02 100.761 194.335 100.505 196.766C100.074 201.637 99.7738 207.009 99.7473 212.653C99.7524 218.296 100.032 223.667 100.446 228.539C100.692 230.971 100.9 233.285 101.209 235.439C101.464 237.599 101.784 239.6 102.08 241.426C102.346 243.256 102.689 244.895 102.951 246.342C103.206 247.79 103.468 249.028 103.69 250.039C103.892 251.016 104.053 251.793 104.173 252.374C104.277 252.91 104.323 253.193 104.305 253.197Z" fill="#263238"/>
<path d="M110.945 302.874C111.003 302.905 110.59 303.869 109.753 305.344C108.918 306.818 107.633 308.787 105.992 310.792C104.349 312.795 102.671 314.443 101.39 315.552C100.109 316.663 99.2448 317.258 99.204 317.207C99.1531 317.145 99.9311 316.447 101.137 315.276C102.343 314.106 103.958 312.436 105.583 310.456C107.204 308.473 108.523 306.563 109.433 305.149C110.344 303.737 110.874 302.837 110.945 302.874Z" fill="#263238"/>
<path d="M223.752 140.095C234.239 144.156 242.02 153.159 244.507 164.126C252.534 199.528 266.277 246.617 266.493 261.809C266.768 281.158 258.307 294.403 247.263 296.845C238.529 298.776 159.359 294.443 159.359 294.443L155.657 264.945L219.767 255.508L210.988 206.456L219.676 138.517L223.752 140.095Z" fill="#EBEBEB"/>
<path d="M219.676 138.515L201.95 131.272L183.262 120.323L183.145 123.526C185.432 127.444 186.222 132.06 185.368 136.516L169.817 217.644L173.346 276.915L180.582 335H236.805L210.988 274.254L220.101 192.398L219.676 138.515Z" fill="#EBEBEB"/>
<path d="M236.096 297.34C236.097 297.349 235.968 297.367 235.714 297.393C235.436 297.42 235.062 297.455 234.582 297.502C233.584 297.611 232.106 297.601 230.199 297.651C226.383 297.669 220.846 297.569 213.957 297.343C200.179 296.883 180.994 295.962 159.342 294.706L159.124 294.694L159.096 294.477C158.654 290.963 158.189 287.256 157.715 283.494C156.918 277.129 156.141 270.922 155.398 264.979L155.366 264.727L155.618 264.69C175.199 261.843 192.32 259.354 204.573 257.573C210.672 256.708 215.559 256.015 218.948 255.534C220.611 255.307 221.905 255.132 222.811 255.009C223.234 254.957 223.565 254.915 223.812 254.885C224.037 254.859 224.153 254.85 224.154 254.858C224.155 254.867 224.042 254.891 223.819 254.932C223.574 254.973 223.245 255.029 222.825 255.102C221.923 255.245 220.632 255.45 218.975 255.713C215.591 256.23 210.713 256.974 204.623 257.904C192.376 259.731 175.265 262.284 155.694 265.202L155.913 264.914C156.66 270.856 157.442 277.063 158.243 283.427C158.714 287.19 159.179 290.897 159.62 294.411L159.374 294.182C181.022 295.453 200.202 296.439 213.971 296.993C220.856 297.264 226.389 297.42 230.2 297.461C232.103 297.441 233.583 297.482 234.576 297.406C235.055 297.38 235.431 297.361 235.709 297.346C235.964 297.333 236.095 297.332 236.096 297.34Z" fill="#263238"/>
<path d="M210.472 201.499C210.491 201.499 210.538 201.688 210.61 202.044C210.692 202.461 210.794 202.981 210.918 203.614C211.182 205.057 211.542 207.018 211.98 209.408C212.845 214.377 214.018 221.112 215.315 228.555C216.557 236.01 217.681 242.754 218.51 247.728C218.886 250.13 219.193 252.099 219.419 253.549C219.509 254.19 219.581 254.714 219.64 255.136C219.685 255.499 219.699 255.692 219.682 255.695C219.664 255.698 219.614 255.511 219.535 255.153C219.451 254.735 219.345 254.217 219.217 253.583C218.949 252.141 218.584 250.181 218.14 247.791C217.254 242.896 216.068 236.127 214.792 228.643C213.516 221.162 212.393 214.383 211.61 209.47C211.241 207.068 210.938 205.097 210.715 203.647C210.629 203.005 210.56 202.479 210.504 202.056C210.465 201.689 210.454 201.499 210.472 201.499Z" fill="#263238"/>
<path d="M191.415 126.036C191.423 126.034 191.447 126.101 191.486 126.234C191.531 126.395 191.584 126.589 191.65 126.826C191.78 127.351 192.009 128.12 192.219 129.133C192.675 131.152 193.205 134.122 193.572 137.864C193.943 141.605 194.1 146.122 193.909 151.184C193.736 156.248 193.199 161.849 192.435 167.782L192.411 167.97L192.224 168.005C190.376 168.348 188.418 168.711 186.428 169.079L186.626 168.722C186.955 169.612 187.299 170.569 187.563 171.559C189.448 178.441 188.62 185.402 186.901 191.225C185.152 197.098 182.484 201.967 180.092 205.89C177.674 209.815 175.487 212.833 173.984 214.921C173.24 215.93 172.653 216.726 172.225 217.306C172.035 217.553 171.88 217.755 171.755 217.917C171.648 218.052 171.588 218.119 171.58 218.114C171.573 218.109 171.617 218.032 171.711 217.885C171.824 217.715 171.964 217.504 172.137 217.244C172.545 216.651 173.105 215.835 173.813 214.802C175.264 212.678 177.402 209.631 179.771 205.696C182.114 201.763 184.728 196.903 186.43 191.087C188.107 185.316 188.9 178.45 187.05 171.699C186.79 170.728 186.454 169.789 186.132 168.916L186.021 168.616L186.33 168.559C188.319 168.192 190.278 167.832 192.126 167.492L191.914 167.715C192.688 161.793 193.244 156.211 193.448 151.166C193.67 146.123 193.551 141.626 193.229 137.894C192.91 134.162 192.433 131.196 192.035 129.171C191.855 128.154 191.655 127.38 191.557 126.849C191.51 126.607 191.47 126.409 191.438 126.246C191.415 126.109 191.407 126.038 191.415 126.036Z" fill="#263238"/>
<path d="M191.413 209.25V196.309C191.413 196.309 191.581 193.115 188.891 193.787C186.202 194.459 186.706 199.502 186.706 199.502C186.706 199.502 186.202 219.168 187.378 219C188.554 218.832 189.006 217.318 189.006 217.318V209.754L191.413 209.25Z" fill="#E8505B"/>
<path d="M202.6 210.057C202.6 210.203 199.495 210.322 195.666 210.322C191.836 210.322 188.732 210.202 188.732 210.057C188.732 209.911 191.836 209.792 195.666 209.792C199.495 209.791 202.6 209.91 202.6 210.057Z" fill="#263238"/>
<path d="M228.209 147.773C228.219 147.812 227.697 147.988 226.759 148.31C225.828 148.653 224.487 149.167 222.913 149.973C219.777 151.568 215.686 154.464 212.51 158.838C211.704 159.917 211.024 161.048 210.465 162.169C209.946 163.317 209.523 164.466 209.235 165.596C208.621 167.847 208.357 169.95 208.202 171.712C208.051 173.478 208.022 174.916 208.011 175.909C208 176.903 208.011 177.453 207.974 177.456C207.937 177.459 207.858 176.911 207.804 175.914C207.752 174.917 207.723 173.471 207.828 171.686C207.936 169.904 208.163 167.774 208.762 165.472C209.043 164.317 209.466 163.136 209.994 161.949C210.571 160.777 211.261 159.625 212.081 158.526C215.319 154.067 219.527 151.166 222.746 149.638C224.362 148.864 225.738 148.398 226.695 148.113C227.659 147.849 228.201 147.741 228.209 147.773Z" fill="#263238"/>
<path d="M0 255.373L92.6218 289.678L170.699 301.613L77.8685 256.359L0 255.373Z" fill="#263238"/>
<path d="M39.6399 292.362C38.9047 287.429 37.2214 282.639 34.7072 278.33C34.2143 277.486 33.6838 276.643 33.4434 275.695C33.2041 274.747 33.306 273.65 33.9679 272.93C35.1563 271.636 37.3293 272.211 38.7906 273.19C41.816 275.215 43.8404 278.48 45.0278 281.922C46.2151 285.364 46.6449 289.012 47.0665 292.628" fill="#FFBE9D"/>
<path d="M75.739 283.545H71.1331C70.2207 282.58 68.8226 281.718 67.0945 281.224C66.0334 280.921 64.9886 281.486 64.0477 282.411C66.1067 279.019 68.3266 275.285 68.7523 274.262C69.5812 272.274 67.7574 270.782 64.7737 270.782C61.7901 270.782 48.6946 289.348 48.6946 289.348C48.6946 289.348 56.8329 274.414 57.6221 272.133C59.5936 266.43 53.3584 266.006 51.0947 268.756C48.2852 272.171 36.9249 289.347 36.9249 289.347C36.9249 289.347 34.7701 292.828 36.262 296.143C37.7538 299.458 42.0643 298.132 42.0643 298.132C42.0643 298.132 42.0307 301.032 45.104 302.74C48.4298 304.589 52.8065 302.445 52.8065 302.445L69.7472 306.255C69.7472 306.255 72.4366 305.984 75.8785 305.642C84.4588 304.789 91.363 298.208 92.6226 289.679L75.739 283.545Z" fill="#FFBE9D"/>
<path d="M64.3224 282.153C64.5108 282.268 62.2593 285.816 59.3317 290.068C57.8673 292.196 56.5119 294.102 55.5089 295.467C54.5059 296.831 53.8541 297.652 53.7941 297.61C53.734 297.569 54.2768 296.671 55.2014 295.253C56.126 293.834 57.4315 291.895 58.8958 289.767C60.3591 287.64 61.7023 285.728 62.686 284.351C63.1198 283.752 63.5088 283.215 63.8611 282.729C64.1483 282.343 64.2807 282.165 64.3224 282.153Z" fill="#EB996E"/>
<path d="M63.3073 301.053C63.2391 301.015 63.8042 299.943 64.8103 298.278C65.8113 296.609 67.239 294.332 68.8062 291.815C69.5852 290.555 70.3377 289.354 70.9528 288.244C71.5954 287.178 71.5516 286.003 71.3255 285.101C70.8286 283.256 69.7858 282.468 69.8795 282.403C69.8978 282.381 70.1616 282.544 70.5383 282.953C70.907 283.363 71.3897 284.035 71.687 285C71.9803 285.937 72.0699 287.28 71.3856 288.472C70.7766 289.625 70.0384 290.83 69.2573 292.095C67.6871 294.617 66.2095 296.861 65.128 298.479C64.0395 300.094 63.3674 301.086 63.3073 301.053Z" fill="#EB996E"/>
<path d="M72.2162 302.74C72.1469 302.72 72.4311 301.679 73.1164 300.097C73.485 299.256 73.8903 298.332 74.3271 297.335C74.7671 296.297 75.2721 295.151 75.5705 293.914C75.8719 292.715 75.6693 291.426 75.0359 290.604C74.7304 290.197 74.2681 289.956 73.8261 289.741C73.3872 289.539 72.9504 289.401 72.5624 289.39C71.8017 289.427 71.1592 289.846 70.7376 290.027C70.3079 290.241 70.0584 290.344 70.04 290.312C70.0227 290.28 70.2345 290.119 70.6347 289.848C70.8364 289.715 71.0848 289.554 71.3944 289.391C71.708 289.24 72.0614 289.038 72.5604 289.015C73.0349 289.004 73.5196 289.14 74.0043 289.34C74.4697 289.545 75.0145 289.8 75.4167 290.298C76.1978 291.275 76.4137 292.702 76.0888 294.034C75.7701 295.35 75.2436 296.496 74.7752 297.535C74.2966 298.57 73.8363 299.484 73.4585 300.252C72.6887 301.787 72.2864 302.763 72.2162 302.74Z" fill="#EB996E"/>
<path d="M75.3362 286.706C75.3484 286.677 75.6091 286.739 76.0572 286.924C76.5052 287.108 77.1295 287.441 77.828 287.965C79.217 288.986 80.8758 290.951 81.4726 293.598C82.0581 296.249 81.3921 298.733 80.5693 300.247C80.16 301.017 79.7363 301.584 79.4095 301.941C79.0826 302.3 78.8728 302.468 78.8494 302.445C78.773 302.382 79.5266 301.612 80.2323 300.082C80.941 298.579 81.5072 296.212 80.9543 293.713C80.3921 291.217 78.8738 289.316 77.5928 288.257C76.3036 287.173 75.2945 286.796 75.3362 286.706Z" fill="#EB996E"/>
<path d="M45.5036 276.968C45.6248 277.05 43.9079 279.799 41.6686 283.106C39.4283 286.416 37.5159 289.031 37.3937 288.948C37.2726 288.866 38.9894 286.118 41.2287 282.809C43.469 279.501 45.3824 276.885 45.5036 276.968Z" fill="#EB996E"/>
<path d="M155.377 266.054L144.789 263.652L134.62 254.074C133.385 252.91 131.779 252.219 130.084 252.122L111.58 251.057C109.733 250.951 107.918 251.557 106.505 252.749L93.2744 263.927L150.983 292.06L158.903 292.76L155.377 266.054Z" fill="#FFBE9D"/>
<path d="M124.008 261.109C123.993 261.193 122.637 260.942 120.443 260.664C118.284 260.426 115.109 260.124 112.064 261.534C110.545 262.212 109.245 263.164 108.07 264.029C106.9 264.908 105.85 265.722 104.922 266.346C103.997 266.974 103.201 267.413 102.634 267.679C102.062 267.935 101.733 268.042 101.719 268.011C101.684 267.931 102.939 267.37 104.705 266.041C105.594 265.385 106.611 264.547 107.773 263.64C108.941 262.748 110.26 261.761 111.845 261.051C113.417 260.308 115.088 260.042 116.571 259.995C118.062 259.953 119.393 260.118 120.495 260.293C121.598 260.472 122.476 260.674 123.081 260.822C123.686 260.97 124.015 261.073 124.008 261.109Z" fill="#EB996E"/>
<path d="M127.803 271.412C127.769 271.497 127.045 271.165 125.807 271.034C124.577 270.889 122.831 271.04 121.048 271.697C119.261 272.355 117.771 273.279 116.69 273.933C115.612 274.596 114.934 275.001 114.89 274.938C114.85 274.88 115.449 274.369 116.483 273.62C117.517 272.883 119.006 271.886 120.866 271.199C122.727 270.511 124.583 270.414 125.86 270.663C127.149 270.899 127.833 271.366 127.803 271.412Z" fill="#EB996E"/>
<path d="M151.621 273.122C151.492 273.202 149.999 270.991 148.033 268.362C146.074 265.727 144.382 263.665 144.496 263.564C144.6 263.469 146.482 265.389 148.458 268.046C150.44 270.696 151.741 273.05 151.621 273.122Z" fill="#EB996E"/>
<path d="M122.48 252.152L145.939 230.301C146.953 229.357 146.875 227.728 145.776 226.885C144.92 226.228 143.719 226.275 142.916 226.995L115.409 251.666" fill="#E8505B"/>
<g opacity="0.3">
<path d="M122.48 252.152L145.939 230.301C146.953 229.357 146.875 227.728 145.776 226.885C144.92 226.228 143.719 226.275 142.916 226.995L115.409 251.666" fill="black"/>
</g>
</svg>
