<svg width="22" height="25" viewBox="0 0 22 25" fill="none" xmlns="http://www.w3.org/2000/svg">
<g clip-path="url(#clip0_4322_15411)">
<path d="M6.8375 1.32922C7.09062 0.821 7.61094 0.5 8.17813 0.5H13.8219C14.3891 0.5 14.9094 0.821 15.1625 1.32922L15.5 2H20C20.8297 2 21.5 2.67172 21.5 3.5C21.5 4.32828 20.8297 5 20 5H2C1.17172 5 0.5 4.32828 0.5 3.5C0.5 2.67172 1.17172 2 2 2H6.5L6.8375 1.32922ZM19.0062 22.3484C18.9312 23.5766 17.9516 24.5 16.7609 24.5H5.23906C4.05078 24.5 3.06734 23.5766 2.99328 22.3484L1.95781 6.5H20L19.0062 22.3484Z" fill="#623E61"/>
</g>
<defs>
<clipPath id="clip0_4322_15411">
<rect width="21" height="24" fill="white" transform="translate(0.5 0.5)"/>
</clipPath>
</defs>
</svg>
